<mxfile host="65bd71144e">
    <diagram id="HIP3nbAZw_EuaXWnEj3U" name="Page-1">
        <mxGraphModel dx="446" dy="383" grid="1" gridSize="10" guides="1" tooltips="1" connect="1" arrows="1" fold="1" page="1" pageScale="1" pageWidth="850" pageHeight="1100" math="0" shadow="0">
            <root>
                <mxCell id="0"/>
                <mxCell id="1" parent="0"/>
                <mxCell id="7" value="http://ics2o.mths.ca" style="swimlane;whiteSpace=wrap;html=1;" parent="1" vertex="1">
                    <mxGeometry x="40" y="40" width="760" height="707" as="geometry"/>
                </mxCell>
                <mxCell id="12" value="&lt;font style=&quot;font-size: 18px;&quot;&gt;Positive&lt;/font&gt;" style="text;html=1;align=center;verticalAlign=middle;resizable=0;points=[];autosize=1;strokeColor=none;fillColor=none;fontSize=36;" vertex="1" parent="7">
                    <mxGeometry x="31" y="107" width="90" height="60" as="geometry"/>
                </mxCell>
                <mxCell id="13" value="&lt;font style=&quot;font-size: 18px;&quot;&gt;Negative&amp;nbsp;&lt;/font&gt;" style="text;html=1;align=center;verticalAlign=middle;resizable=0;points=[];autosize=1;strokeColor=none;fillColor=none;fontSize=12;" vertex="1" parent="7">
                    <mxGeometry x="32" y="152" width="100" height="40" as="geometry"/>
                </mxCell>
                <mxCell id="14" value="Please choose one:" style="text;html=1;align=center;verticalAlign=middle;resizable=0;points=[];autosize=1;strokeColor=none;fillColor=none;fontSize=18;" vertex="1" parent="7">
                    <mxGeometry x="10" y="90" width="180" height="40" as="geometry"/>
                </mxCell>
                <mxCell id="15" value="" style="shape=image;verticalLabelPosition=bottom;labelBackgroundColor=default;verticalAlign=top;aspect=fixed;imageAspect=0;image=data:image/avif,AAAAGGZ0eXBhdmlmAAAAAG1pZjFtaWFmAAAA0m1ldGEAAAAAAAAAIWhkbHIAAAAAAAAAAHBpY3QAAAAAAAAAAAAAAAAAAAAADnBpdG0AAAAAAAEAAAAeaWxvYwAAAABEAAABAAEAAAABAAAA8gAAE94AAAAjaWluZgAAAAAAAQAAABVpbmZlAgAAAAABAABhdjAxAAAAAFZpcHJwAAAAOGlwY28AAAAUaXNwZQAAAAAAAAJYAAACWAAAAAxhdjFDgT9AAAAAABBwaXhpAAAAAAMKCgoAAAAWaXBtYQAAAAAAAAABAAEDAYIDAAAT5m1kYXQSAAoKP+ZleVy8BDQbQDLNJ2aFnjdDJxX8/4A/0BBYCFQAAAAAArrWVBBBFQAAGQT2CDnHWlavM/gdd04ZHJxP5ZQmxJ0xM5V5UBcSfQdssImPbnjuLowUGVZD39mPzC+NhxSLAPvRYnqOHu5qJmyHuPbznYxVphGLyMXcEn0f4LXfuziMQP9OB4ypJLhSlzTFeZ3g44MXES+bGsfe+ajm6Q68c4M16T0fLWtH+rK7ZgnG9jP1injWjDFoX0lxDLpmEJkfY5J8rOvv3gS/sKQ7JG6Ordd0XduzbYZIzhVX8vWntHSueVLl+ECCFEmjlUPXp7hr1pfa8MQb7OQ11EkDZOPR+0CWYiMsCSMSDOqv+0bj3TGMX8LFRdBEfu9uZ+YgROw+klTZN4Zpb13kT4vQtF64pLrwkTvSX7LgrB5lNQJl6ik/u9S39fQFFdNCy+Tbg1HxdfLgQaSCkCUBC/CmRnuURh8LDqp5L+ZG7pAiLUYQ+vN62J8LWyb3RiiV6b/fXIBrqqJUMCz9fteOVtmbBXD1ZAKueAsgt0f/Q6X7iBYXFdxHXSodLHcXNerVSbtop5+YyjbqRFM/bH6orLmGlwcTEIjw49ljMl/jwqoIyeFzJbJV2GHFmGCCNYmkZHPrDkYbARPyqZqYaPbayfim8cdzp6X600USn2UVoEGuIhMcwZ8Lg5l0jtaCIugKPY8Ugq7uaU5ADflywZ5Z2FW99+ufJwhF4qs/GDYHNELFIRbUsiulrd3AiulfeAW9W+mHVMjLCATS/MwL3PCYYFAAYpr3uzvcEYaTFLEdfXd8VgEnIon2+W/7Hj6sel0+kb/jkmZMQaxMEjOYNAk1rpeX8Wb5jXBDKhnouHbVQInrSUzUdvKpTPlVNV65NXTDCgUMT7RcDLlXOWwSKjtiQ5twaRvTsgzcq+p7NoDl80c17uvY8cVbGqBI8DJ0SHEJeaV/Ic6g8vhQxFeoXHcThH5ddggv+ZVgVEvjkxfxBdPIsCNIQNSf+i4BBvjVuWOqdEtOYRljAPVpbu3/ZQGWjGLF4N/6F5/iHJjnxKKfpNLC51YUcouDZgRKgTv1yFDTSf8ibvjeCNTXO9EFgOxJ/6crqAEZ7SzE8MnEr0E7mefcGgl8J537yirOqj5gqufTr0XH0kB3igwYg+sBNQOokiqvU6Yb0obQ6ZOcqvmd71LXzLREwItybGfts0t5hv8dOy/4Hl0x5sYu5uYqDeWpYttpDHNaJLolsfmWuLAcsN1xisY/wc5FCcDrLqJwEttoAVfbrJL9TImeHgyqQgzFY+RxZafd6mu0MxbuOP7RUMZgOGo8xYOO5QglHlG8Eb5nB6XaI8kohO/QWz+zqTXOGXG0tvbmf37z+G+3HKnjR2v6NDuRgzhj7jUl3MoJg/Liz0Xq8ao5qYS7ppFrxBU+0ZSSsUv67UycIT+VQKuZnhxLfwTysjGQVTtP9hw2BUdCgsvp2+EL0/aNruSX0Cenq+odvlDwnWkhG5NiKCJiE5t0Vqigzrb0rySeqbpIzem8KHOwPLHcTqrQkfdcyz7ES4WZeCrZqlvlXLns0tb0bDDimQm75YmuMRJKDL/pgtzKj+G+1dTs4vclh5k3GIbTuBPBcIfjNH0bNtuWM/oTSol+9BFgJx/ggcoxjPww80AD/qlll+F+SnxWkLO/7ap3yc/0M4zYISDsofAgmky/PIb/1FAOq00QQ2alRi7jq1GmC8LA7l6wLjmMHuPU79lJzGEE2qxUzbYQWPTct3BgQy5nd3kuEdskI6h++ggWyX9OFOH+q2mSHF7eNLAjFOHTNc1RZXJQ9CwU4QbukfjDFUqeIIegoOepQUUVGVL3TsQFP09zqTNiVhERwsIe8FTgTdmuL0djXT0ObZIiyUnsCEz3TWsFElNo23zwKPUB1jV2xG24cxDpW/tQ06odEtDIgh+wjl0W6MIJ89SnCuaYsIquPI1Tyq9HGbcrPLW9A/Dndvp4bj40fNXbXVx+DORJO8BBGnItNN5lOxXkRQq+BOO0Sf64tvIoffCIR3JhON+nCDmUby6YPT0hbCWLbs1MerobkGeT7u7cyLm8RE6S86YS2u6ERqcq3FOhT6m1/7P5tpK0rmJScA7FE8jz6Ib/0Q2U3lMuoK/tmtXqmpMCB+yKkO1hgELP1qN/ab08Ckl8KIF+5MEMmKk5YhYsAnTi55+DyI4sKF0RNFb1bCytEZvgbNfg7cPvKdsMzMvttZsg9Ee9szxfonCUGP+AwHD3upIWK+3RCe64g4xrukE1Dq6FgR7DP00Fim4EWQjLoExNHpHE1bR51NTNUUHSZ1+TAv+4Hsw5IJXMMctGJZ/A7MOrKeNGQ53g8UinrtWg/QBFVihw3MAmrCoOVvy4paNd4WZ7irJlDmRKtjCV/Gx0eU0uLhsCdGhT/Xg2Bq2wNZeoUesW9WKzPxj0oLRarV+GptZiDphjlJriy/GoSogi8MPD26We6aSiaR9g2YXXrtIEgNxtPvQX94v4cwitNkrFMV21xLJ4ft3vB022ctdSxqCjOxYG1nr/PnYroDUzsTPwMf/l3V2TuIeBxSeGUZ5xdSeKIEFDlijmKEJdANBVbxOc1RnADTkWmxrKfTYbhXYepVeQ83TO1+KTWGdk7k5iLOz+wb0hlwvlAlUW2igJueEtVrB0251vZhnL7Cdr7CND8kfqVkdbymtJAxcf6iWH9YSUrvm6xOHP5TRTA80o80TDWhwa5KvbVNco7mzORTqocBSinnz7yCUbu2b/o6sPSYIBARMb/1JZrqtAUIDBnb9/VJTq1mLGyGgui0y7Rit4o5LTvwilcKu214DzvNjVO2N/gifvfdiiCT803j938YzzCTMb3AXgCUabBAipG/2r57yWnIYsm+NZOAprpE6QuT4MN9lj9FeUxFKH+lz3/KoJ9jjFeT//9BBrFIIBqmPgKFUD2R1yd7Ad0+ioQbnCKsAWuo7bTJ8toOroGsL2z7mNV5d82oVq7jWQWxcdBoy6lnqej3CcENY20c2KELDap/wW4ucuYbSV0hsEkqZOFnZ1U1niy8aEPHa+6apBm1MkciGhfgDBn/HkRC34ZThpQtumosLi26l4Johh0SAMtufvuwKZNvtkZwy09Eg+Sp9RNafMOrEgWUA0ftXeAyfFGjdSnLS7eNORr4WqyKlwOq2R3SiAoZg0VqbpB1oSQU3JPyACLElV9kocqZKF0G+mQ8or+rrYAKYkWp96wJttsEZGmzrcgN0F69KVd7a/CAtVOLo67Np+P57wx5b1AnkCzbKvNUknf5LdcnJU//kkfxSkmOSi0VMnaCcISi1hdHKOk7Vywuyk7KraWZ3Tf4b5XRyEr71vpHkMrjwsNdh/u1yt5mr40zzc1SEXx9ohS366E23Mf4MSbe/DswS15uiKrPP+oHuw+E2g6frfrGzV2kYqdzGSb1OzR30Jcd9t2ev1gUyqab2fHk/HvuHkN9MP749AgthqoH6D8MSjstqDlE4AFnoXKevvH3qCL97ucEbZpTbKKf7JFb8mRP5MZtJbkd8TB32ONg0Yrrk63cOeTTuDUsko5pAyeqpc6z5PIYgbkTRF1Q5G5YSd+2+QdUS18jTWJFkgOWMT2mdBbHsaYuhHZ1OA2mf0R8co01958nheFkE11pPpMnDBEDkjWJcQOJRTCRXkXT/OBlOjxYmVbN1ZyH+M1qJ2bprglGlv5nFMKosj/KGM65Q1PRyao1QhvYWDpLReX4fAa1m9DdA/nJZyyIgR188UFUPczjRbj/f7oUbPsN5GH8VaSyckkL1zC7V9oHX2gYGcGfK1FqB6dgyRMznTsWLXxAdSm1WtDosELPJThhHc4wgZA9sagZDcejdP6wCw2oyZCl3G17ZNlGN5ZWgWoXTUkK0KNxXWGiqiPvo8Zr7oioAs7wFc16beaiUuoOCo+quP6PnB6xBPhlApfhAJGTU4K1S+NsYbVXcFs9aoKxgNkOxngoCQHGJ8Qz3Y6hWXpTBKnrnw75dfAeSQyviuhTFvSjk+nADTkqB+vgUJw/lxT+udqS1hq3DXwE6xQKjzy2KSC2g6+boWYccwxxFRPquMbvEVJJgWnjy7GNUZJB5dYJEUEPlLvzU2lKRo+3JihKZ/XCW0BwBPe2ctHBuTZknFps7nmhCQFJYaW76KtXUDwdsZ8dpKxTkQbWBIwP/o7iNyZG7Vct2yP9mvrHMhMsTO74ghOAqqEaN3u2WniFu5EN+yoNYbDTAovkO5+DzAVaw6m4jtSiUYsKaOIoKFsbzQHCcJS0OIIz5u7iHNgwtdIcIZnT5sXB+Ro3dKesHouC16j/wxneinZiSBdLH2SOg7P+sNge6ent5wOwTt6i2099sjqGn+US1zVj0OwOljbvqRg7bESOr8SGruWFOwyP4pN9/umEy+B4TNS/4JjIKyiAgnlXNSRS0vJTLWyb40V0SPuZcpMYW98pZd11ITqArxPjkHkYFvk5CFc4Wz9bA/AuFdbxGV78ewo+hZmzQc4YRjfGghbpx6FABrndUYXBCC5V0aWmG1TKKoBapitxUhWqBNVeX3BQoEnSHlEFSvthYkGD5NX4O30qDat1OL/YLm/yCGCpMGcen90Mhq2JPYjMCJe5tvLkgDMkcJYcJsK2/yotLPX6JXjMY3eX2xPBpKO2Z5S/Nd08Sa06ZwqVaOXyseemArYtqe0/xr0TGA/KTzHK+MOzGrclVDcsPUVpSqNzPTuA81wGAnWJgiWA5DBVqGHm4T6sfZL974qTLHBSqS9zE4mUf0B5FKiukML5y0ewOP8fIl8i4bkp7bo4zuxK6PEAAUYu/K+3S6S5SD2VFJnrkg6zEAAImruYu6VU6eu/r79mYyAM7v666doNOQ4ADuLHdTBPljNAEHLrv51IJYd0L6VVcJAS8uS2X1QIB2n4ga3GuwgDhnP7xSBlAvUTxlydHALKkkJx0NJvUWf09Eqsnz23M4NrH5a8ti0vyLaar3ZkWrqoSN4ZXslDMlakUeMiJe/qEOmZG1L1G77Uc4JjXkj/iGX01L+QjdI0FjjoGl4oRi++HVFj2/ZAPzkqITKJcZQPgDqm7IWwagiCXIzblAuDZYqUpGlhzcwNe8Wg2O9JAPhEyQrfFKQJ0LFKsGwZCmTI7BBGaj/ErV3DuxvtatuobDdPXeMqmV9qX1w60IX7di6zlYiW1y11VYxhTSxpGS8JdHt0UVqCbI6prZa0kqLBrmGbopmlCF5jRKLg8ahUZgzrPBgEcqu4DiLnyX//tfhAZbxFXY/sWX06WEYKbI9a8nfPfeG+YSgIV03j/SyCSQYrT37DcIATWS7HcHR6cC/1b1m515Bz4Jq+M+R9JSg2PIP2kfjZ/pIFH2vQgMxmOe4mZKftQB8HxxyZnapOIeRiz/ABn4fekBLMS1GV0HT+5w8+LEOitgm5SSey8afZ3GDcZDUHz1T3cyowXeD06GeBRKB+iV3oT7gIJ0coKt47sZv3ZWjv6zo42wLmRCB+k46/XfxQ5u1vz3Qr1ldgb+9nGrpubdURFOgllUdKlNed/+Qvmfbz2mJeeZ3W5xmEZihkevstifelIvtTXgndr2uXvyIQ5AofOm2+FBTCm2B390ziQSD8XasN/LPXoI635SyJTfCvsggL1Ub0zBovJgeg1DDc8luEz1gANnkr3TfFfuW5v4apykxrC8oFf4CnllYPfMViV9XoTee7fPSPGONTzmFS4PTaW92Jz5pGchA3Rhm/tFbAbtj4ePO8ddy+bh+IjxTzVUhsyIAlydSf8V0yzj/SwOlKI34oeyJDnsALH6j+7o1ohJnd5RTdZFDjbqZu2K3kJD5A1p9jKzA3Xe7I0Ig75CiVFRGgpTZSgEiAz/lSFo8lQKyKpn/jgOImsyRG13sVlkwmfTy3zSOn3wTZEobPKz4fWfHNtcM2BE4FAgrSLrRRsiXLi7ZnO/XhmBlD1nn3nRprO69do+jNUf8hCgNOxdNYPQW/qngLK7RBECTcTuYWFsmssbM/T3978aGhcXynIqJBLrBRXGjXptKU90z5xx+VEv/SaywaIpdw1w9atFz8xA/pUdjv+isj8JNl7rtEejJtsRi0IUpnQ8ZkPWLgu+4W+pugzLiWk4gy7U5nPEWUU0EIpxaBAap8bV90JFf9zBnyEG26oyntZ92zt8EPpdNgDxWu9+68a+vvZz8hE16XP7yJnjyRA0XOV6LVLrh1dIEwjZARkYQS7Uy5OPMtYRIzVLI5wlex8W28bnhYyWiyEaYZpF2tC7ASgijJRz6Bf4sfbLMWWyq7VF4aidhJiCFPI+S7/PvEdrFcF3F6dCp1x0dxBywRD9MdzsHp3j4OPDm1SvulNsi9NKZNLI8qNhczjhS3zT07AhlObhpdvYJkkY31quJsFxUBLcwNka8+AO6UZkYoF6yElbP/Z2/0RYe0B9VKCg/JeZSRcL+UV9GoPM/F21pcelwQH0pKGXm1JKa739ZiwYCjWqAD0iqtPCKNaFuP5YrGkzFcnqk6iy3pfIOsf3ERGzO+MLPtgraPCUDK4wCBEjuu5gK/zO0XZOafNAZfHLwSYaWUHcDgVD8dAwSXIzQ3QOHpYicra2yqsJ/ZgcH1tfksdCUm2FPrbeW1h92I/xHmgfdX8+I1baqHRn6VUO8BoovhMmZ/CUUeyuNjzYyl1Tv2hmJsnP3JdpuIWoWUTLGMGJOabDRfnNA6xE80Ua7ERrCaLd3ra3UhfvscvFXz2n1XJyLRUuWk0bS6XSovzWTlGSaNmUL/o8dufA01eBJ+Fo0g89S7/g;" vertex="1" parent="7">
                    <mxGeometry x="500" y="107" width="250" height="250" as="geometry"/>
                </mxCell>
                <mxCell id="16" value="Submit" style="labelPosition=center;verticalLabelPosition=middle;align=center;html=1;shape=mxgraph.basic.shaded_button;dx=10;fillColor=#f0a30a;strokeColor=#BD7000;whiteSpace=wrap;fontSize=18;fontColor=#000000;" vertex="1" parent="7">
                    <mxGeometry x="26" y="210" width="100" height="60" as="geometry"/>
                </mxCell>
                <mxCell id="17" value="Negative or Positive number from 1 to 6" style="text;html=1;align=center;verticalAlign=middle;resizable=0;points=[];autosize=1;strokeColor=none;fillColor=none;fontSize=18;" vertex="1" parent="7">
                    <mxGeometry x="10" y="290" width="340" height="40" as="geometry"/>
                </mxCell>
                <mxCell id="8" value="" style="rounded=0;whiteSpace=wrap;html=1;fillColor=#e3c800;fontColor=#000000;strokeColor=#B09500;" vertex="1" parent="1">
                    <mxGeometry x="40" y="65" width="760" height="60" as="geometry"/>
                </mxCell>
                <mxCell id="9" value="&lt;font style=&quot;font-size: 36px;&quot;&gt;Radio Button Program&lt;/font&gt;" style="text;html=1;align=center;verticalAlign=middle;resizable=0;points=[];autosize=1;strokeColor=none;fillColor=none;" vertex="1" parent="1">
                    <mxGeometry x="280" y="65" width="380" height="60" as="geometry"/>
                </mxCell>
                <mxCell id="10" value="" style="ellipse;whiteSpace=wrap;html=1;aspect=fixed;fontSize=36;" vertex="1" parent="1">
                    <mxGeometry x="67" y="184" width="10" height="10" as="geometry"/>
                </mxCell>
                <mxCell id="11" value="" style="ellipse;whiteSpace=wrap;html=1;aspect=fixed;fontSize=36;" vertex="1" parent="1">
                    <mxGeometry x="68" y="207" width="10" height="10" as="geometry"/>
                </mxCell>
            </root>
        </mxGraphModel>
    </diagram>
</mxfile>